<?xml version="1.0" encoding="UTF-8"?>
<svg width="100%" height="100%" id="_레이어_2" data-name="레이어 2" xmlns="http://www.w3.org/2000/svg" viewBox="0 0 81.24 99.58">
  <defs>
    <style>
      .cls-1 {
        fill: #182538;
        stroke-width: 0px;
      }
    </style>
  </defs>
  <g id="_레이어_1-2" data-name="레이어 1">
    <path class="cls-1" d="M58.46,45.54H22.32c-7.62,0-13.82-6.2-13.82-13.82s6.2-13.82,13.82-13.82h32.31c1.79,5.45,6.91,9.39,12.96,9.39,7.54,0,13.65-6.11,13.65-13.65S75.13,0,67.59,0c-6.05,0-11.17,3.94-12.96,9.4H22.32C10.01,9.4,0,19.41,0,31.72s10.01,22.32,22.32,22.32h36.14c7.62,0,13.82,6.2,13.82,13.82s-6.2,13.82-13.82,13.82h-31.85c-1.79-5.45-6.91-9.4-12.96-9.4-7.54,0-13.65,6.11-13.65,13.65s6.11,13.65,13.65,13.65c6.05,0,11.17-3.94,12.96-9.39h31.85c12.31,0,22.32-10.01,22.32-22.32s-10.01-22.32-22.32-22.32Z"/>
  </g>
</svg>